<?xml version="1.0" standalone="no"?>
<!DOCTYPE svg PUBLIC "-//W3C//DTD SVG 20010904//EN"
 "http://www.w3.org/TR/2001/REC-SVG-20010904/DTD/svg10.dtd">
<svg version="1.0" xmlns="http://www.w3.org/2000/svg"
 width="1024.000000pt" height="1024.000000pt" viewBox="0 0 48.000000 48.000000"
 preserveAspectRatio="xMidYMid meet">

<g transform="translate(0.000000,48.000000) scale(0.100000,-0.100000)"
fill="#FFFFFF" stroke="none">
<path d="M80 383 c-29 -10 -40 -37 -40 -99 0 -65 11 -87 50 -99 13 -4 20 -15
20 -31 0 -38 26 -40 70 -5 27 22 49 31 75 31 57 0 85 35 85 105 0 46 -4 60
-25 80 -22 23 -31 25 -122 24 -54 0 -105 -3 -113 -6z m220 -42 c15 -30 12 -97
-6 -115 -9 -9 -32 -16 -55 -16 -29 0 -45 -6 -61 -25 -12 -14 -25 -25 -30 -25
-4 0 -8 11 -8 25 0 19 -5 25 -23 25 -13 0 -28 5 -35 12 -16 16 -16 110 0 126
8 8 47 12 110 12 86 0 98 -2 108 -19z"/>
<path d="M360 317 c0 -7 10 -17 23 -22 18 -8 23 -19 25 -63 3 -60 -8 -82 -44
-82 -19 0 -24 -5 -24 -25 0 -14 -4 -25 -8 -25 -5 0 -19 11 -32 25 -27 29 -80
34 -100 10 -11 -13 -7 -15 27 -15 31 0 46 -7 68 -30 38 -40 65 -40 65 0 0 19
5 30 14 30 7 0 25 9 40 21 23 18 26 28 26 80 0 50 -4 64 -25 84 -26 27 -55 33
-55 12z"/>
</g>

</svg>
